<?xml version="1.0" encoding="UTF-8"?>
<svg xmlns="http://www.w3.org/2000/svg" xmlns:xlink="http://www.w3.org/1999/xlink" width="130px" height="80px" viewBox="0 0 130 80" version="1.1">
<defs>
<clipPath id="clip1">
  <path d="M 76.871094 18.292969 L 125.320312 18.292969 L 125.320312 38.1875 L 76.871094 38.1875 Z M 76.871094 18.292969 "/>
</clipPath>
</defs>
<g id="surface1">
<g clip-path="url(#clip1)" clip-rule="nonzero">
<path style=" stroke:none;fill-rule:nonzero;fill:rgb(94.509804%,5.490196%,21.176471%);fill-opacity:1;" d="M 122.171875 18.289062 C 122.128906 18.289062 122.082031 18.289062 122.039062 18.296875 L 116.53125 19.195312 C 116.257812 19.242188 116.097656 19.410156 116.171875 19.574219 L 116.46875 20.25 L 115.0625 20.484375 C 111.621094 20.480469 108.175781 20.472656 104.734375 20.472656 C 104.722656 20.46875 104.71875 20.46875 104.710938 20.472656 C 104.179688 20.484375 103.671875 20.621094 103.285156 20.851562 C 103.277344 20.855469 103.265625 20.863281 103.25 20.867188 C 102.957031 21.050781 102.664062 21.226562 102.367188 21.410156 C 102.074219 21.589844 101.777344 21.773438 101.480469 21.953125 C 101.191406 22.132812 100.894531 22.3125 100.597656 22.492188 C 100.304688 22.671875 100.007812 22.851562 99.714844 23.035156 C 99.417969 23.214844 99.121094 23.398438 98.828125 23.574219 C 98.808594 23.585938 98.792969 23.597656 98.777344 23.609375 C 98.503906 23.5 98.199219 23.414062 97.878906 23.367188 C 97.417969 23.289062 96.953125 23.277344 96.515625 23.320312 C 95.179688 23.453125 94.023438 24.078125 93.636719 24.953125 C 93.007812 26.40625 93.933594 27.753906 94.976562 28.710938 C 96.019531 29.675781 97.21875 30.289062 97.21875 30.289062 C 97.335938 30.34375 97.484375 30.367188 97.625 30.351562 C 97.625 30.351562 97.742188 30.339844 97.90625 30.320312 C 98.078125 30.292969 98.324219 30.257812 98.621094 30.207031 C 98.914062 30.152344 99.265625 30.085938 99.644531 30 C 100.023438 29.914062 100.433594 29.804688 100.855469 29.679688 C 101.273438 29.550781 101.707031 29.398438 102.132812 29.222656 C 102.234375 29.179688 102.34375 29.132812 102.453125 29.085938 C 102.554688 29.039062 102.65625 28.992188 102.757812 28.9375 C 102.859375 28.886719 102.964844 28.835938 103.0625 28.78125 C 103.164062 28.726562 103.257812 28.667969 103.351562 28.613281 C 103.402344 28.585938 103.449219 28.554688 103.5 28.523438 C 103.542969 28.492188 103.589844 28.460938 103.636719 28.429688 C 103.671875 28.410156 103.703125 28.382812 103.734375 28.367188 C 103.78125 28.351562 103.828125 28.34375 103.875 28.335938 L 110.664062 27.210938 C 111.390625 27.109375 111.867188 26.832031 112.289062 26.691406 C 112.304688 26.6875 112.308594 26.683594 112.316406 26.679688 C 113.875 26.089844 115.433594 25.5 116.988281 24.910156 L 118.417969 24.671875 L 118.714844 25.335938 C 118.785156 25.5 119.0625 25.601562 119.328125 25.554688 L 124.839844 24.660156 C 125.113281 24.617188 125.269531 24.445312 125.191406 24.277344 L 122.65625 18.519531 C 122.597656 18.382812 122.394531 18.289062 122.171875 18.289062 Z M 101.335938 18.601562 C 98.53125 18.570312 95.71875 19.003906 93.277344 19.878906 C 87.996094 21.703125 84.828125 25.503906 85.523438 29.210938 C 85.542969 29.386719 85.796875 29.519531 86.082031 29.496094 C 86.367188 29.476562 86.570312 29.316406 86.519531 29.140625 C 85.878906 25.695312 88.867188 22.109375 93.78125 20.414062 L 93.785156 20.414062 C 97.660156 19.023438 102.601562 18.839844 106.730469 19.929688 C 106.984375 20.003906 107.289062 19.929688 107.398438 19.773438 C 107.511719 19.609375 107.390625 19.429688 107.125 19.359375 C 105.464844 18.921875 103.6875 18.675781 101.894531 18.617188 C 101.707031 18.613281 101.523438 18.609375 101.335938 18.601562 Z M 121.8125 18.976562 L 124.09375 24.140625 L 119.550781 24.878906 L 117.28125 19.714844 L 119.054688 19.429688 L 119.273438 19.90625 L 119.578125 20.605469 C 119.648438 20.773438 119.929688 20.878906 120.203125 20.835938 C 120.472656 20.785156 120.632812 20.609375 120.550781 20.445312 L 120.242188 19.742188 L 120.035156 19.269531 Z M 116.734375 20.851562 L 118.15625 24.070312 L 116.707031 24.316406 C 116.65625 24.320312 116.617188 24.328125 116.578125 24.339844 C 116.570312 24.339844 116.570312 24.347656 116.558594 24.347656 C 116.554688 24.347656 116.554688 24.347656 116.550781 24.351562 C 116.535156 24.351562 116.53125 24.355469 116.511719 24.363281 C 114.945312 24.957031 113.382812 25.554688 111.8125 26.148438 C 111.808594 26.148438 111.804688 26.148438 111.804688 26.148438 C 111.242188 26.335938 110.835938 26.550781 110.453125 26.605469 C 110.4375 26.609375 110.421875 26.613281 110.40625 26.617188 L 110.402344 26.617188 C 110.386719 26.617188 110.382812 26.617188 110.375 26.617188 L 103.601562 27.738281 C 103.582031 27.742188 103.570312 27.742188 103.550781 27.75 C 103.027344 27.871094 102.382812 27.789062 102.0625 27.523438 C 102.058594 27.519531 102.050781 27.515625 102.046875 27.507812 C 101.578125 27.164062 101.835938 26.53125 102.492188 26.367188 C 103.585938 26.160156 102.941406 26.289062 104.113281 26.085938 L 104.117188 26.085938 L 106.328125 25.71875 C 107.511719 25.523438 108.207031 24.765625 107.898438 24.035156 C 107.65625 23.488281 106.90625 23.097656 106.046875 23.023438 C 105.765625 22.996094 105.460938 23.007812 105.167969 23.054688 L 103.300781 23.378906 C 103.25 23.382812 103.199219 23.394531 103.148438 23.410156 C 103.078125 23.429688 103.023438 23.460938 102.972656 23.5 C 102.792969 23.609375 102.617188 23.71875 102.4375 23.828125 C 102.296875 23.914062 102.15625 24.007812 102.011719 24.097656 C 101.300781 24.078125 100.59375 24.210938 99.988281 24.460938 C 99.859375 24.304688 99.710938 24.152344 99.527344 24.023438 C 99.535156 24.023438 99.535156 24.023438 99.539062 24.019531 C 99.832031 23.835938 100.128906 23.65625 100.421875 23.476562 C 100.710938 23.292969 101.011719 23.117188 101.304688 22.933594 C 101.601562 22.757812 101.898438 22.570312 102.195312 22.394531 C 102.488281 22.210938 102.78125 22.035156 103.074219 21.851562 C 103.375 21.671875 103.667969 21.492188 103.960938 21.308594 C 103.960938 21.308594 103.960938 21.304688 103.964844 21.304688 C 104.171875 21.179688 104.464844 21.101562 104.753906 21.089844 C 108.1875 21.089844 111.625 21.101562 115.058594 21.101562 C 115.113281 21.105469 115.171875 21.105469 115.230469 21.097656 C 115.230469 21.097656 115.234375 21.097656 115.234375 21.097656 C 115.242188 21.097656 115.25 21.097656 115.261719 21.09375 L 115.277344 21.089844 Z M 120.53125 21.269531 C 120.242188 21.257812 120.007812 21.398438 120.007812 21.578125 C 120.007812 21.753906 120.242188 21.894531 120.53125 21.882812 C 120.816406 21.894531 121.050781 21.753906 121.050781 21.578125 C 121.050781 21.398438 120.816406 21.257812 120.53125 21.269531 Z M 105.804688 23.628906 C 106.316406 23.640625 106.78125 23.859375 106.925781 24.195312 C 107.105469 24.605469 106.726562 25.007812 106.070312 25.117188 L 104.890625 25.3125 C 104.855469 25.265625 104.820312 25.21875 104.78125 25.171875 C 104.671875 25.054688 104.550781 24.9375 104.410156 24.832031 C 104.265625 24.726562 104.109375 24.628906 103.9375 24.539062 C 103.757812 24.453125 103.570312 24.375 103.363281 24.3125 C 103.300781 24.289062 103.234375 24.273438 103.171875 24.257812 C 103.328125 24.160156 103.484375 24.0625 103.640625 23.960938 L 105.4375 23.65625 C 105.5625 23.632812 105.683594 23.628906 105.804688 23.628906 Z M 97.015625 23.914062 C 97.214844 23.914062 97.417969 23.929688 97.617188 23.964844 C 98.425781 24.097656 99.0625 24.496094 99.285156 25.035156 C 99.386719 25.265625 99.859375 25.34375 100.132812 25.171875 C 100.761719 24.777344 101.640625 24.625 102.453125 24.757812 C 102.617188 24.785156 102.765625 24.820312 102.90625 24.867188 C 103.046875 24.910156 103.175781 24.960938 103.296875 25.023438 C 103.421875 25.085938 103.53125 25.148438 103.632812 25.226562 C 103.734375 25.304688 103.820312 25.382812 103.894531 25.46875 C 103.898438 25.472656 103.898438 25.476562 103.90625 25.476562 L 103.855469 25.484375 C 103.855469 25.484375 103.855469 25.484375 103.855469 25.488281 C 102.65625 25.691406 103.363281 25.554688 102.167969 25.777344 C 102.15625 25.78125 102.140625 25.785156 102.128906 25.789062 C 100.789062 26.117188 100.351562 27.210938 101.265625 27.898438 C 101.539062 28.128906 101.910156 28.277344 102.316406 28.359375 C 102.257812 28.394531 102.195312 28.429688 102.128906 28.460938 C 102.039062 28.503906 101.945312 28.546875 101.855469 28.585938 C 101.761719 28.632812 101.667969 28.667969 101.574219 28.710938 C 101.195312 28.867188 100.796875 29.007812 100.40625 29.121094 C 100.027344 29.242188 99.644531 29.335938 99.289062 29.417969 C 98.9375 29.5 98.617188 29.5625 98.34375 29.613281 C 98.070312 29.660156 97.855469 29.695312 97.695312 29.714844 C 97.476562 29.59375 96.652344 29.140625 95.816406 28.371094 C 94.863281 27.492188 94.085938 26.328125 94.617188 25.117188 C 94.933594 24.394531 95.941406 23.921875 97.019531 23.914062 Z M 115.828125 26.035156 C 115.515625 26.039062 115.28125 26.222656 115.351562 26.414062 C 116.53125 29.742188 114.25 33.429688 109.789062 35.433594 L 109.78125 35.441406 C 105.34375 37.523438 98.972656 37.804688 94.089844 36.140625 C 93.851562 36.054688 93.539062 36.105469 93.398438 36.257812 C 93.265625 36.414062 93.359375 36.601562 93.601562 36.683594 C 98.847656 38.476562 105.625 38.175781 110.386719 35.933594 C 115.1875 33.773438 117.597656 29.867188 116.335938 26.285156 C 116.289062 26.132812 116.074219 26.027344 115.828125 26.035156 Z M 105.410156 29.363281 C 105.125 29.367188 104.835938 29.410156 104.558594 29.492188 C 104.550781 29.496094 104.542969 29.496094 104.53125 29.5 C 102.53125 30.195312 100.542969 30.902344 98.554688 31.605469 C 98.398438 30.945312 97.46875 30.441406 96.359375 30.4375 L 86.769531 30.417969 C 86.671875 30.417969 86.582031 30.421875 86.488281 30.429688 C 86.488281 30.429688 86.480469 30.429688 86.476562 30.433594 C 86.472656 30.433594 86.472656 30.433594 86.46875 30.433594 C 86.441406 30.433594 86.417969 30.433594 86.390625 30.441406 C 86.378906 30.445312 86.367188 30.445312 86.351562 30.445312 C 86.332031 30.445312 86.3125 30.449219 86.289062 30.457031 C 86.269531 30.457031 86.253906 30.460938 86.238281 30.460938 C 86.222656 30.464844 86.207031 30.46875 86.1875 30.472656 C 86.167969 30.476562 86.148438 30.476562 86.128906 30.480469 C 86.113281 30.484375 86.101562 30.492188 86.085938 30.492188 C 86.0625 30.492188 86.039062 30.5 86.015625 30.507812 C 86.011719 30.507812 86 30.507812 85.992188 30.511719 C 85.964844 30.523438 85.933594 30.523438 85.90625 30.535156 C 85.898438 30.535156 85.898438 30.535156 85.898438 30.535156 C 85.8125 30.554688 85.726562 30.582031 85.640625 30.613281 L 83.929688 31.214844 L 83.496094 31.371094 L 83.386719 31.117188 C 83.308594 30.957031 83.035156 30.855469 82.761719 30.902344 L 77.25 31.796875 C 76.988281 31.839844 76.824219 32.007812 76.894531 32.179688 L 79.4375 37.9375 C 79.511719 38.101562 79.789062 38.203125 80.054688 38.160156 L 85.574219 37.257812 C 85.835938 37.21875 86 37.046875 85.925781 36.882812 L 85.761719 36.519531 L 86.421875 36.285156 L 88.140625 35.679688 C 88.234375 35.648438 88.332031 35.621094 88.425781 35.605469 C 88.523438 35.589844 88.625 35.582031 88.734375 35.582031 L 95.492188 35.589844 C 95.886719 35.601562 96.273438 35.554688 96.625 35.445312 C 96.628906 35.445312 96.636719 35.441406 96.644531 35.433594 C 99.898438 34.289062 103.144531 33.140625 106.394531 31.992188 C 107.324219 31.726562 107.898438 31.085938 107.644531 30.445312 C 107.441406 29.820312 106.515625 29.390625 105.535156 29.371094 C 105.488281 29.367188 105.449219 29.367188 105.410156 29.371094 Z M 105.375 29.992188 C 105.933594 29.976562 106.550781 30.226562 106.65625 30.5625 C 106.664062 30.570312 106.664062 30.574219 106.664062 30.582031 C 106.804688 30.910156 106.460938 31.289062 105.945312 31.429688 C 105.933594 31.433594 105.914062 31.4375 105.894531 31.445312 C 102.65625 32.589844 99.414062 33.742188 96.167969 34.882812 C 95.972656 34.941406 95.75 34.972656 95.53125 34.960938 C 95.53125 34.960938 95.527344 34.960938 95.527344 34.960938 C 95.515625 34.960938 95.507812 34.960938 95.496094 34.960938 L 95.488281 34.960938 C 95.484375 34.960938 95.480469 34.960938 95.480469 34.960938 L 88.734375 34.953125 C 88.675781 34.953125 88.621094 34.953125 88.554688 34.957031 C 88.53125 34.957031 88.503906 34.957031 88.476562 34.960938 C 88.386719 34.964844 88.296875 34.976562 88.203125 34.992188 C 88.195312 34.992188 88.179688 34.992188 88.167969 34.996094 C 88.160156 34.996094 88.148438 35 88.144531 35 C 88.050781 35.011719 87.960938 35.035156 87.875 35.054688 C 87.847656 35.058594 87.828125 35.070312 87.808594 35.078125 C 87.75 35.089844 87.691406 35.109375 87.640625 35.128906 L 85.929688 35.734375 L 85.492188 35.886719 L 83.769531 31.976562 L 84.433594 31.742188 L 86.148438 31.136719 C 86.203125 31.117188 86.265625 31.101562 86.316406 31.085938 C 86.339844 31.085938 86.367188 31.078125 86.390625 31.070312 C 86.410156 31.070312 86.429688 31.0625 86.445312 31.0625 C 86.46875 31.058594 86.480469 31.054688 86.492188 31.054688 C 86.527344 31.054688 86.5625 31.046875 86.59375 31.046875 C 86.644531 31.039062 86.703125 31.039062 86.765625 31.039062 L 96.355469 31.054688 C 97.035156 31.054688 97.570312 31.382812 97.570312 31.800781 C 97.570312 32.214844 97.050781 32.539062 96.371094 32.539062 L 91.570312 32.527344 L 90.378906 32.523438 C 90.089844 32.519531 89.851562 32.660156 89.851562 32.835938 C 89.84375 33.007812 90.082031 33.152344 90.371094 33.148438 L 91.570312 33.148438 L 96.367188 33.160156 C 97.238281 33.160156 98.003906 32.839844 98.359375 32.382812 C 98.375 32.382812 98.382812 32.378906 98.394531 32.375 C 100.605469 31.597656 102.792969 30.8125 105.003906 30.046875 C 105.121094 30.007812 105.242188 29.992188 105.375 29.992188 Z M 82.546875 31.570312 L 84.816406 36.734375 L 80.277344 37.472656 L 78.007812 32.308594 L 79.789062 32.023438 L 79.996094 32.496094 L 80.3125 33.199219 C 80.375 33.367188 80.652344 33.472656 80.933594 33.429688 C 81.207031 33.382812 81.363281 33.207031 81.28125 33.039062 L 80.96875 32.335938 L 80.757812 31.863281 Z M 81.261719 33.859375 C 80.597656 33.867188 80.597656 34.476562 81.261719 34.480469 C 81.921875 34.476562 81.921875 33.867188 81.261719 33.859375 Z M 81.261719 33.859375 "/>
</g>
<path style=" stroke:none;fill-rule:nonzero;fill:rgb(0%,0%,0%);fill-opacity:1;" d="M 11.183594 37.554688 L 8.652344 27.117188 L 8.507812 26.414062 L 8.289062 26.414062 L 8.289062 37.554688 L 4.613281 37.554688 L 4.613281 20.949219 L 9.460938 20.949219 L 11.808594 28.539062 L 11.996094 29.421875 L 12.070312 29.421875 L 12.25 28.539062 L 14.601562 20.949219 L 19.445312 20.949219 L 19.445312 37.554688 L 15.777344 37.554688 L 15.777344 26.414062 L 15.554688 26.414062 L 15.410156 27.117188 L 12.875 37.554688 Z M 11.183594 37.554688 "/>
<path style=" stroke:none;fill-rule:nonzero;fill:rgb(0%,0%,0%);fill-opacity:1;" d="M 21.285156 37.554688 L 25.351562 20.949219 L 30.203125 20.949219 L 34.277344 37.554688 L 30.425781 37.554688 L 29.695312 34.164062 L 25.875 34.164062 L 25.136719 37.554688 Z M 28 26.351562 L 27.890625 25.921875 L 27.667969 25.921875 L 27.5625 26.351562 L 26.421875 31.589844 L 29.136719 31.589844 Z M 28 26.351562 "/>
<path style=" stroke:none;fill-rule:nonzero;fill:rgb(0%,0%,0%);fill-opacity:1;" d="M 34.71875 23.460938 L 34.71875 20.949219 L 46.171875 20.949219 L 46.171875 23.460938 L 42.429688 23.460938 L 42.429688 37.554688 L 38.464844 37.554688 L 38.464844 23.460938 Z M 34.71875 23.460938 "/>
<path style=" stroke:none;fill-rule:nonzero;fill:rgb(0%,0%,0%);fill-opacity:1;" d="M 58.03125 31.863281 L 58.03125 34.144531 C 57.996094 34.820312 57.777344 35.429688 57.371094 35.953125 C 57.039062 36.402344 56.527344 36.835938 55.796875 37.171875 C 55.058594 37.535156 54.070312 37.738281 52.75 37.738281 C 51.425781 37.738281 50.394531 37.535156 49.660156 37.171875 C 48.929688 36.835938 48.449219 36.402344 48.117188 35.953125 C 47.714844 35.429688 47.492188 34.820312 47.457031 34.144531 L 47.457031 24.363281 C 47.492188 23.707031 47.714844 23.097656 48.117188 22.578125 C 48.449219 22.125 48.929688 21.671875 49.660156 21.335938 C 50.394531 20.996094 51.425781 20.769531 52.75 20.769531 C 54.070312 20.769531 55.058594 20.996094 55.796875 21.335938 C 56.527344 21.671875 57.039062 22.125 57.371094 22.578125 C 57.777344 23.097656 57.996094 23.707031 58.03125 24.363281 L 58.03125 26.644531 L 54.324219 26.644531 L 54.324219 24.363281 C 54.324219 23.910156 54.140625 23.59375 53.738281 23.320312 C 53.550781 23.210938 53.222656 23.140625 52.820312 23.140625 C 52.117188 23.140625 51.789062 23.460938 51.605469 23.753906 C 51.496094 23.929688 51.457031 24.132812 51.425781 24.363281 L 51.425781 34.144531 C 51.457031 34.617188 51.679688 34.933594 52.042969 35.183594 C 52.226562 35.296875 52.488281 35.367188 52.820312 35.367188 C 53.664062 35.367188 53.992188 35.09375 54.175781 34.753906 C 54.285156 34.597656 54.324219 34.394531 54.324219 34.144531 L 54.324219 31.863281 Z M 58.03125 31.863281 "/>
<path style=" stroke:none;fill-rule:nonzero;fill:rgb(0%,0%,0%);fill-opacity:1;" d="M 67.464844 30.324219 L 64.378906 30.324219 L 64.378906 37.554688 L 60.417969 37.554688 L 60.417969 20.949219 L 64.378906 20.949219 L 64.378906 27.820312 L 67.464844 27.820312 L 67.464844 20.949219 L 71.433594 20.949219 L 71.433594 37.554688 L 67.464844 37.554688 Z M 67.464844 30.324219 "/>
<path style=" stroke:none;fill-rule:nonzero;fill:rgb(0%,0%,0%);fill-opacity:1;" d="M 11.808594 40.992188 L 15.664062 40.992188 L 11.554688 57.597656 L 7.589844 57.597656 L 3.476562 40.992188 L 7.332031 40.992188 L 9.316406 50.117188 L 9.460938 50.820312 L 9.683594 50.820312 L 9.828125 50.117188 Z M 11.808594 40.992188 "/>
<path style=" stroke:none;fill-rule:nonzero;fill:rgb(0%,0%,0%);fill-opacity:1;" d="M 27.785156 54.183594 C 27.742188 54.867188 27.523438 55.476562 27.121094 55.992188 C 26.789062 56.445312 26.273438 56.871094 25.539062 57.210938 C 24.804688 57.574219 23.816406 57.777344 22.492188 57.777344 C 21.167969 57.777344 20.148438 57.574219 19.410156 57.210938 C 18.675781 56.871094 18.195312 56.445312 17.867188 55.992188 C 17.460938 55.476562 17.242188 54.867188 17.207031 54.183594 L 17.207031 44.402344 C 17.242188 43.746094 17.460938 43.136719 17.867188 42.617188 C 18.195312 42.164062 18.675781 41.714844 19.410156 41.375 C 20.148438 41.039062 21.167969 40.808594 22.492188 40.808594 C 23.816406 40.808594 24.804688 41.039062 25.539062 41.375 C 26.273438 41.714844 26.789062 42.164062 27.121094 42.617188 C 27.523438 43.136719 27.742188 43.746094 27.785156 44.402344 Z M 23.816406 44.402344 C 23.816406 43.949219 23.667969 43.632812 23.300781 43.367188 C 23.117188 43.25 22.828125 43.179688 22.492188 43.179688 C 21.796875 43.179688 21.46875 43.5 21.316406 43.789062 C 21.210938 43.976562 21.167969 44.179688 21.167969 44.402344 L 21.167969 54.183594 C 21.167969 54.660156 21.351562 54.976562 21.722656 55.226562 C 21.90625 55.335938 22.164062 55.40625 22.492188 55.40625 C 23.195312 55.40625 23.523438 55.132812 23.667969 54.796875 C 23.777344 54.636719 23.816406 54.433594 23.816406 54.183594 Z M 23.816406 44.402344 "/>
<path style=" stroke:none;fill-rule:nonzero;fill:rgb(0%,0%,0%);fill-opacity:1;" d="M 30.457031 40.992188 L 34.421875 40.992188 L 34.421875 55.335938 L 39.671875 55.335938 L 39.671875 57.597656 L 30.457031 57.597656 Z M 30.457031 40.992188 "/>
<path style=" stroke:none;fill-rule:nonzero;fill:rgb(0%,0%,0%);fill-opacity:1;" d="M 51.824219 40.992188 L 51.824219 54.183594 C 51.789062 54.867188 51.570312 55.476562 51.164062 55.992188 C 50.835938 56.445312 50.320312 56.871094 49.585938 57.210938 C 48.851562 57.574219 47.859375 57.777344 46.539062 57.777344 C 45.21875 57.777344 44.191406 57.574219 43.457031 57.210938 C 42.71875 56.871094 42.242188 56.445312 41.910156 55.992188 C 41.511719 55.476562 41.292969 54.867188 41.25 54.183594 L 41.25 40.992188 L 45.21875 40.992188 L 45.21875 54.183594 C 45.21875 54.660156 45.402344 54.976562 45.765625 55.226562 C 45.949219 55.335938 46.207031 55.40625 46.539062 55.40625 C 47.238281 55.40625 47.570312 55.132812 47.714844 54.796875 C 47.824219 54.636719 47.859375 54.433594 47.859375 54.183594 L 47.859375 40.992188 Z M 51.824219 40.992188 "/>
<path style=" stroke:none;fill-rule:nonzero;fill:rgb(0%,0%,0%);fill-opacity:1;" d="M 58.914062 48.945312 L 58.582031 48.179688 L 58.359375 48.179688 L 58.359375 57.597656 L 54.726562 57.597656 L 54.726562 40.992188 L 58.253906 40.992188 L 62.105469 49.648438 L 62.4375 50.414062 L 62.65625 50.414062 L 62.65625 40.992188 L 66.289062 40.992188 L 66.289062 57.597656 L 62.769531 57.597656 Z M 58.914062 48.945312 "/>
<path style=" stroke:none;fill-rule:nonzero;fill:rgb(0%,0%,0%);fill-opacity:1;" d="M 67.832031 43.5 L 67.832031 40.992188 L 79.285156 40.992188 L 79.285156 43.5 L 75.542969 43.5 L 75.542969 57.597656 L 71.578125 57.597656 L 71.578125 43.5 Z M 67.832031 43.5 "/>
<path style=" stroke:none;fill-rule:nonzero;fill:rgb(0%,0%,0%);fill-opacity:1;" d="M 90.375 37.492188 L 87.472656 39.523438 L 84.609375 39.523438 L 86.519531 37.492188 Z M 79.726562 57.597656 L 83.800781 40.992188 L 88.648438 40.992188 L 92.722656 57.597656 L 88.871094 57.597656 L 88.136719 54.210938 L 84.316406 54.210938 L 83.582031 57.597656 Z M 86.445312 46.390625 L 86.335938 45.960938 L 86.113281 45.960938 L 86.007812 46.390625 L 84.867188 51.632812 L 87.585938 51.632812 Z M 86.445312 46.390625 "/>
<path style=" stroke:none;fill-rule:nonzero;fill:rgb(0%,0%,0%);fill-opacity:1;" d="M 101.648438 57.597656 L 99.589844 50.59375 L 98.523438 50.59375 L 98.523438 57.597656 L 94.558594 57.597656 L 94.558594 40.992188 L 98.523438 40.992188 C 103.261719 40.992188 105.28125 42.640625 105.28125 45.78125 C 105.28125 47.429688 104.585938 48.921875 103.074219 49.554688 L 105.613281 57.597656 Z M 98.523438 48.335938 C 99.074219 48.335938 99.8125 48.289062 100.398438 47.972656 C 100.984375 47.65625 101.460938 47.046875 101.460938 45.871094 C 101.460938 44.695312 100.984375 44.066406 100.398438 43.746094 C 99.8125 43.429688 99.074219 43.410156 98.523438 43.410156 Z M 98.523438 48.335938 "/>
<path style=" stroke:none;fill-rule:nonzero;fill:rgb(0%,0%,0%);fill-opacity:1;" d="M 107.8125 40.992188 L 111.777344 40.992188 L 111.777344 57.597656 L 107.8125 57.597656 Z M 107.8125 40.992188 "/>
<path style=" stroke:none;fill-rule:nonzero;fill:rgb(0%,0%,0%);fill-opacity:1;" d="M 125.03125 54.183594 C 124.996094 54.867188 124.777344 55.476562 124.371094 55.992188 C 124.042969 56.445312 123.523438 56.871094 122.792969 57.210938 C 122.058594 57.574219 121.066406 57.777344 119.746094 57.777344 C 118.421875 57.777344 117.394531 57.574219 116.65625 57.210938 C 115.925781 56.871094 115.449219 56.445312 115.117188 55.992188 C 114.710938 55.476562 114.496094 54.867188 114.457031 54.183594 L 114.457031 44.402344 C 114.496094 43.746094 114.710938 43.136719 115.117188 42.617188 C 115.449219 42.164062 115.925781 41.714844 116.65625 41.375 C 117.394531 41.039062 118.421875 40.808594 119.746094 40.808594 C 121.066406 40.808594 122.058594 41.039062 122.792969 41.375 C 123.523438 41.714844 124.042969 42.164062 124.371094 42.617188 C 124.777344 43.136719 124.996094 43.746094 125.03125 44.402344 Z M 121.066406 44.402344 C 121.066406 43.949219 120.917969 43.632812 120.550781 43.367188 C 120.367188 43.25 120.074219 43.179688 119.746094 43.179688 C 119.046875 43.179688 118.714844 43.5 118.566406 43.789062 C 118.460938 43.976562 118.421875 44.179688 118.421875 44.402344 L 118.421875 54.183594 C 118.421875 54.660156 118.605469 54.976562 118.972656 55.226562 C 119.15625 55.335938 119.414062 55.40625 119.746094 55.40625 C 120.441406 55.40625 120.769531 55.132812 120.917969 54.796875 C 121.027344 54.636719 121.066406 54.433594 121.066406 54.183594 Z M 121.066406 44.402344 "/>
</g>
</svg>
